<?xml version="1.0" encoding="UTF-8" standalone="no"?>
<svg
   xmlns:dc="http://purl.org/dc/elements/1.1/"
   xmlns:cc="http://creativecommons.org/ns#"
   xmlns:rdf="http://www.w3.org/1999/02/22-rdf-syntax-ns#"
   xmlns:svg="http://www.w3.org/2000/svg"
   xmlns="http://www.w3.org/2000/svg"
   xmlns:sodipodi="http://sodipodi.sourceforge.net/DTD/sodipodi-0.dtd"
   xmlns:inkscape="http://www.inkscape.org/namespaces/inkscape"
   version="1.1"
   x="0px"
   y="0px"
   viewBox="0 0 100 100"
   enable-background="new 0 0 100 100"
   xml:space="preserve"
   id="svg2"
   inkscape:version="0.91 r13725"
   sodipodi:docname="gambit-icon.svg"
   width="100"
   height="100"
   inkscape:export-filename="C:\Users\Jamie\Downloads\noun_20413_cc.png"
   inkscape:export-xdpi="57.599998"
   inkscape:export-ydpi="57.599998"><metadata
     id="metadata20"><rdf:RDF><cc:Work
         rdf:about=""><dc:format>image/svg+xml</dc:format><dc:type
           rdf:resource="http://purl.org/dc/dcmitype/StillImage" /><dc:title></dc:title></cc:Work></rdf:RDF></metadata><defs
     id="defs18" /><sodipodi:namedview
     pagecolor="#ffffff"
     bordercolor="#000000"
     borderopacity="1"
     objecttolerance="10"
     gridtolerance="10"
     guidetolerance="10"
     inkscape:pageopacity="0"
     inkscape:pageshadow="2"
     inkscape:window-width="1500"
     inkscape:window-height="937"
     id="namedview16"
     showgrid="false"
     inkscape:zoom="3.776"
     inkscape:cx="54.54961"
     inkscape:cy="78.213295"
     inkscape:window-x="-8"
     inkscape:window-y="-8"
     inkscape:window-maximized="1"
     inkscape:current-layer="svg2"
     inkscape:snap-smooth-nodes="true" /><g
     id="g4146"><path
       style="fill:#004e7f;fill-opacity:1"
       d="m 24.57225,28.119001 c -0.629031,-1.9248 0.421639,-3.995289 2.345582,-4.625177 l 14.466853,-4.731443 -2.77065,-3.669632 C 37.394538,13.477322 35.09609,13.155094 33.479807,14.376305 L 8.6073782,33.154676 C 6.9919515,34.37503 6.6714371,36.674335 7.8917913,38.290618 L 38.267811,78.522884 c 1.220355,1.615426 1.768828,2.604393 3.385969,1.381468 0,0 -0.82871,-2.098769 -1.408035,-3.873596 L 24.57225,28.119001 Z"
       id="path6"
       inkscape:connector-curvature="0" /><path
       style="fill:#3e8100;fill-opacity:1"
       d="m 67.546027,23.328425 -1.541726,-4.713446 c -0.62903,-1.9248 -2.697805,-2.97547 -4.625176,-2.345582 l -29.619298,9.689131 c -1.923943,0.629888 -2.973756,2.69952 -2.345582,4.62432 l 15.674352,47.914326 c 0.628174,1.9248 1.370327,2.690092 2.808357,2.300162 0,0 0.162828,-2.338727 0.250241,-4.216392 l 2.295877,-50.36189 c 0.09255,-2.023354 1.807393,-3.588219 3.827319,-3.495664 l 13.275636,0.605035 z"
       id="path8"
       inkscape:connector-curvature="0" /><path
       style="fill:#810004;fill-opacity:1"
       d="M 89.35043,28.675188 58.215974,27.255155 c -2.019069,-0.0917 -3.733907,1.472309 -3.826462,3.49652 l -2.299305,50.360176 c -0.09255,2.02164 1.474024,3.735621 3.494807,3.828176 l 31.134456,1.42089 c 2.020783,0.09084 3.734764,-1.474881 3.829033,-3.494807 L 92.845237,32.50422 C 92.937792,30.481723 91.37207,28.766886 89.35043,28.675188 Z M 77.69622,57.824855 77.520537,69.286243 71.835263,59.050351 62.735741,62.462029 68.684967,53.27595 57.224436,48.551363 68.943778,47.770645 67.723424,34.50872 l 7.173009,11.067173 8.312805,-4.11184 -5.860956,9.711414 10.191328,6.693094 -9.84339,-0.04371 z"
       id="path10"
       inkscape:connector-curvature="0" /></g></svg>